<?xml version='1.0' encoding='UTF-8'?>
<svg xmlns="http://www.w3.org/2000/svg" viewBox="15 45 70 50" width="70" height="50">
  <defs>
    <marker id="arrowhead-blue" markerWidth="4" markerHeight="3.5" refX="2.5" refY="1.75" orient="auto">
      <polygon points="0 0, 4 1.75, 0 3.5" fill="#2196F3"/>
    </marker>
    <marker id="arrowhead-orange" markerWidth="4" markerHeight="3.5" refX="2.5" refY="1.75" orient="auto">
      <polygon points="0 0, 4 1.75, 0 3.5" fill="#FF9800"/>
    </marker>
  </defs>

  <g class="scan-frame-group">
    <circle cx="30" cy="70" r="7" fill="#2196F3"/>
    <text x="30" y="70" text-anchor="middle" dominant-baseline="middle" font-size="7" fill="white" font-family="sans-serif">∀</text>

    <circle cx="70" cy="70" r="7" fill="#FF9800"/>
    <text x="70" y="70" text-anchor="middle" dominant-baseline="middle" font-size="7" fill="white" font-family="sans-serif">∃</text>

    <path d="M 35 75 Q 50 90 63 75" fill="none" stroke="#2196F3" stroke-width="1.5" marker-end="url(#arrowhead-blue)"/>
    <path d="M 65 65 Q 50 50 37 65" fill="none" stroke="#FF9800" stroke-width="1.5" marker-end="url(#arrowhead-orange)"/>

    <path d="M 20 60 Q 20 50 30 50" fill="none" stroke="#666" stroke-width="2" stroke-linecap="round" stroke-linejoin="round"/>
    <path d="M 80 60 Q 80 50 70 50" fill="none" stroke="#666" stroke-width="2" stroke-linecap="round" stroke-linejoin="round"/>
    <path d="M 20 80 Q 20 90 30 90" fill="none" stroke="#666" stroke-width="2" stroke-linecap="round" stroke-linejoin="round"/>
    <path d="M 80 80 Q 80 90 70 90" fill="none" stroke="#666" stroke-width="2" stroke-linecap="round" stroke-linejoin="round"/>
  </g>
</svg>
